<mxfile host="app.diagrams.net" modified="2021-01-07T14:21:21.344Z" agent="5.0 (Macintosh; Intel Mac OS X 11_1_0) AppleWebKit/537.36 (KHTML, like Gecko) Chrome/87.0.4280.88 Safari/537.36" etag="t6MAB70_9QddmrrX-Br7" version="14.1.8" type="github">
  <diagram id="-aN6qcOy-xtXAuwBUnzZ" name="第 1 页">
    <mxGraphModel dx="2125" dy="740" grid="1" gridSize="10" guides="1" tooltips="1" connect="1" arrows="1" fold="1" page="1" pageScale="1" pageWidth="827" pageHeight="1169" math="0" shadow="0">
      <root>
        <mxCell id="0" />
        <mxCell id="1" parent="0" />
        <mxCell id="ojVlhn7t0QZ64-Dwg_ZY-1" value="" style="rounded=0;whiteSpace=wrap;html=1;dashed=1;fillColor=none;" vertex="1" parent="1">
          <mxGeometry x="100" y="80" width="630" height="340" as="geometry" />
        </mxCell>
        <mxCell id="ojVlhn7t0QZ64-Dwg_ZY-9" value="" style="group" vertex="1" connectable="0" parent="1">
          <mxGeometry x="109" y="91" width="190" height="110" as="geometry" />
        </mxCell>
        <mxCell id="ojVlhn7t0QZ64-Dwg_ZY-2" value="" style="rounded=0;whiteSpace=wrap;html=1;fillColor=none;" vertex="1" parent="ojVlhn7t0QZ64-Dwg_ZY-9">
          <mxGeometry width="190" height="110" as="geometry" />
        </mxCell>
        <mxCell id="ojVlhn7t0QZ64-Dwg_ZY-3" value="" style="rounded=0;whiteSpace=wrap;html=1;fillColor=none;" vertex="1" parent="ojVlhn7t0QZ64-Dwg_ZY-9">
          <mxGeometry x="10" y="40" width="110" height="60" as="geometry" />
        </mxCell>
        <mxCell id="ojVlhn7t0QZ64-Dwg_ZY-6" value="main Docker" style="text;html=1;strokeColor=none;fillColor=none;align=center;verticalAlign=middle;whiteSpace=wrap;rounded=0;" vertex="1" parent="ojVlhn7t0QZ64-Dwg_ZY-9">
          <mxGeometry x="30" y="45" width="40" height="20" as="geometry" />
        </mxCell>
        <mxCell id="ojVlhn7t0QZ64-Dwg_ZY-7" value="1C2G" style="text;html=1;strokeColor=none;fillColor=none;align=center;verticalAlign=middle;whiteSpace=wrap;rounded=0;" vertex="1" parent="ojVlhn7t0QZ64-Dwg_ZY-9">
          <mxGeometry x="60" y="72" width="40" height="20" as="geometry" />
        </mxCell>
        <mxCell id="ojVlhn7t0QZ64-Dwg_ZY-8" value="pDocker&lt;br&gt;上报kafka" style="text;html=1;fillColor=none;align=center;verticalAlign=middle;whiteSpace=wrap;rounded=0;strokeColor=#000000;" vertex="1" parent="ojVlhn7t0QZ64-Dwg_ZY-9">
          <mxGeometry x="130" y="40" width="50" height="50" as="geometry" />
        </mxCell>
        <mxCell id="ojVlhn7t0QZ64-Dwg_ZY-5" value="pod1" style="text;html=1;strokeColor=none;fillColor=none;align=center;verticalAlign=middle;whiteSpace=wrap;rounded=0;" vertex="1" parent="ojVlhn7t0QZ64-Dwg_ZY-9">
          <mxGeometry x="30" y="10" width="40" height="20" as="geometry" />
        </mxCell>
        <mxCell id="ojVlhn7t0QZ64-Dwg_ZY-11" value="HOST(DISK 2T)" style="text;html=1;strokeColor=none;fillColor=none;align=center;verticalAlign=middle;whiteSpace=wrap;rounded=0;" vertex="1" parent="1">
          <mxGeometry x="560" y="120" width="180" as="geometry" />
        </mxCell>
        <mxCell id="ojVlhn7t0QZ64-Dwg_ZY-12" value="" style="group" vertex="1" connectable="0" parent="1">
          <mxGeometry x="310" y="91" width="190" height="110" as="geometry" />
        </mxCell>
        <mxCell id="ojVlhn7t0QZ64-Dwg_ZY-13" value="" style="rounded=0;whiteSpace=wrap;html=1;fillColor=none;" vertex="1" parent="ojVlhn7t0QZ64-Dwg_ZY-12">
          <mxGeometry width="190" height="110" as="geometry" />
        </mxCell>
        <mxCell id="ojVlhn7t0QZ64-Dwg_ZY-14" value="" style="rounded=0;whiteSpace=wrap;html=1;fillColor=none;" vertex="1" parent="ojVlhn7t0QZ64-Dwg_ZY-12">
          <mxGeometry x="10" y="40" width="110" height="60" as="geometry" />
        </mxCell>
        <mxCell id="ojVlhn7t0QZ64-Dwg_ZY-15" value="main Docker" style="text;html=1;strokeColor=none;fillColor=none;align=center;verticalAlign=middle;whiteSpace=wrap;rounded=0;" vertex="1" parent="ojVlhn7t0QZ64-Dwg_ZY-12">
          <mxGeometry x="30" y="45" width="40" height="20" as="geometry" />
        </mxCell>
        <mxCell id="ojVlhn7t0QZ64-Dwg_ZY-16" value="1C2G" style="text;html=1;strokeColor=none;fillColor=none;align=center;verticalAlign=middle;whiteSpace=wrap;rounded=0;" vertex="1" parent="ojVlhn7t0QZ64-Dwg_ZY-12">
          <mxGeometry x="60" y="72" width="40" height="20" as="geometry" />
        </mxCell>
        <mxCell id="ojVlhn7t0QZ64-Dwg_ZY-17" value="pDocker&lt;br&gt;上报kafka" style="text;html=1;fillColor=none;align=center;verticalAlign=middle;whiteSpace=wrap;rounded=0;strokeColor=#000000;" vertex="1" parent="ojVlhn7t0QZ64-Dwg_ZY-12">
          <mxGeometry x="130" y="40" width="50" height="50" as="geometry" />
        </mxCell>
        <mxCell id="ojVlhn7t0QZ64-Dwg_ZY-18" value="pod2" style="text;html=1;strokeColor=none;fillColor=none;align=center;verticalAlign=middle;whiteSpace=wrap;rounded=0;" vertex="1" parent="ojVlhn7t0QZ64-Dwg_ZY-12">
          <mxGeometry x="30" y="10" width="40" height="20" as="geometry" />
        </mxCell>
        <mxCell id="ojVlhn7t0QZ64-Dwg_ZY-20" value="……" style="rounded=0;whiteSpace=wrap;html=1;strokeColor=#000000;fillColor=none;" vertex="1" parent="1">
          <mxGeometry x="510" y="91" width="70" height="109" as="geometry" />
        </mxCell>
        <mxCell id="ojVlhn7t0QZ64-Dwg_ZY-21" style="edgeStyle=orthogonalEdgeStyle;rounded=0;orthogonalLoop=1;jettySize=auto;html=1;exitX=0.5;exitY=1;exitDx=0;exitDy=0;entryX=0.117;entryY=0.5;entryDx=0;entryDy=0;entryPerimeter=0;" edge="1" parent="1" source="ojVlhn7t0QZ64-Dwg_ZY-3" target="ojVlhn7t0QZ64-Dwg_ZY-1">
          <mxGeometry relative="1" as="geometry" />
        </mxCell>
        <mxCell id="ojVlhn7t0QZ64-Dwg_ZY-26" style="edgeStyle=orthogonalEdgeStyle;rounded=0;orthogonalLoop=1;jettySize=auto;html=1;exitX=1;exitY=0.5;exitDx=0;exitDy=0;" edge="1" parent="1" source="ojVlhn7t0QZ64-Dwg_ZY-22">
          <mxGeometry relative="1" as="geometry">
            <mxPoint x="260" y="277" as="targetPoint" />
          </mxGeometry>
        </mxCell>
        <mxCell id="ojVlhn7t0QZ64-Dwg_ZY-22" value="info.log&lt;br&gt;info.log.20201112.1&lt;br&gt;info.log.20201112.2.gz" style="rounded=0;whiteSpace=wrap;html=1;strokeColor=#000000;fillColor=none;" vertex="1" parent="1">
          <mxGeometry x="109" y="250" width="136" height="53" as="geometry" />
        </mxCell>
        <mxCell id="ojVlhn7t0QZ64-Dwg_ZY-24" style="edgeStyle=orthogonalEdgeStyle;rounded=0;orthogonalLoop=1;jettySize=auto;html=1;" edge="1" parent="1" source="ojVlhn7t0QZ64-Dwg_ZY-8">
          <mxGeometry relative="1" as="geometry">
            <mxPoint x="264" y="460" as="targetPoint" />
          </mxGeometry>
        </mxCell>
        <mxCell id="ojVlhn7t0QZ64-Dwg_ZY-29" value="" style="edgeStyle=orthogonalEdgeStyle;rounded=0;orthogonalLoop=1;jettySize=auto;html=1;" edge="1" parent="1" source="ojVlhn7t0QZ64-Dwg_ZY-25">
          <mxGeometry relative="1" as="geometry">
            <mxPoint x="315" y="310" as="targetPoint" />
          </mxGeometry>
        </mxCell>
        <mxCell id="ojVlhn7t0QZ64-Dwg_ZY-25" value="pod(日志解析)" style="text;html=1;strokeColor=none;fillColor=none;align=center;verticalAlign=middle;whiteSpace=wrap;rounded=0;" vertex="1" parent="1">
          <mxGeometry x="260" y="260" width="110" height="20" as="geometry" />
        </mxCell>
        <mxCell id="ojVlhn7t0QZ64-Dwg_ZY-30" value="raw （原样）上报" style="text;html=1;strokeColor=none;fillColor=none;align=center;verticalAlign=middle;whiteSpace=wrap;rounded=0;" vertex="1" parent="1">
          <mxGeometry x="269" y="320" width="101" height="20" as="geometry" />
        </mxCell>
        <mxCell id="ojVlhn7t0QZ64-Dwg_ZY-31" value="json" style="text;html=1;strokeColor=none;fillColor=none;align=center;verticalAlign=middle;whiteSpace=wrap;rounded=0;" vertex="1" parent="1">
          <mxGeometry x="324" y="285" width="40" height="20" as="geometry" />
        </mxCell>
        <mxCell id="ojVlhn7t0QZ64-Dwg_ZY-33" value="" style="rounded=0;whiteSpace=wrap;html=1;strokeColor=#000000;fillColor=none;" vertex="1" parent="1">
          <mxGeometry x="102.5" y="470" width="625.5" height="60" as="geometry" />
        </mxCell>
        <mxCell id="ojVlhn7t0QZ64-Dwg_ZY-37" style="edgeStyle=orthogonalEdgeStyle;rounded=0;orthogonalLoop=1;jettySize=auto;html=1;" edge="1" parent="1" source="ojVlhn7t0QZ64-Dwg_ZY-34">
          <mxGeometry relative="1" as="geometry">
            <mxPoint x="405" y="580" as="targetPoint" />
          </mxGeometry>
        </mxCell>
        <mxCell id="ojVlhn7t0QZ64-Dwg_ZY-34" value="&lt;div style=&quot;text-align: center ; font-size: 15px&quot;&gt;&lt;font style=&quot;font-size: 15px&quot;&gt;&lt;span style=&quot;text-align: left ; background-color: rgb(248 , 249 , 250)&quot;&gt;专为春节活动&amp;nbsp;&lt;/span&gt;&lt;span style=&quot;text-align: left ; background-color: rgb(255 , 255 , 255)&quot;&gt;rz-message1/af-message1&lt;/span&gt;&lt;/font&gt;&lt;/div&gt;&lt;font style=&quot;font-size: 15px&quot;&gt;Topic:ks-share-fe&lt;/font&gt;" style="text;html=1;strokeColor=none;fillColor=none;align=center;verticalAlign=middle;whiteSpace=wrap;rounded=0;" vertex="1" parent="1">
          <mxGeometry x="195" y="472.5" width="420" height="60" as="geometry" />
        </mxCell>
        <mxCell id="ojVlhn7t0QZ64-Dwg_ZY-35" value="&lt;font style=&quot;font-size: 17px&quot;&gt;&lt;b&gt;kafka集群&lt;/b&gt;&lt;/font&gt;" style="text;html=1;strokeColor=none;fillColor=none;align=center;verticalAlign=middle;whiteSpace=wrap;rounded=0;" vertex="1" parent="1">
          <mxGeometry x="109" y="485" width="141" height="35" as="geometry" />
        </mxCell>
        <mxCell id="ojVlhn7t0QZ64-Dwg_ZY-36" value="每10行或每10s" style="text;html=1;strokeColor=none;fillColor=none;align=center;verticalAlign=middle;whiteSpace=wrap;rounded=0;" vertex="1" parent="1">
          <mxGeometry x="254.5" y="350" width="121" height="30" as="geometry" />
        </mxCell>
        <mxCell id="ojVlhn7t0QZ64-Dwg_ZY-39" style="edgeStyle=orthogonalEdgeStyle;rounded=0;orthogonalLoop=1;jettySize=auto;html=1;" edge="1" parent="1" source="ojVlhn7t0QZ64-Dwg_ZY-38">
          <mxGeometry relative="1" as="geometry">
            <mxPoint x="405" y="650" as="targetPoint" />
            <Array as="points">
              <mxPoint x="405" y="640" />
              <mxPoint x="405" y="640" />
            </Array>
          </mxGeometry>
        </mxCell>
        <mxCell id="ojVlhn7t0QZ64-Dwg_ZY-38" value="投递" style="text;html=1;strokeColor=none;fillColor=none;align=center;verticalAlign=middle;whiteSpace=wrap;rounded=0;" vertex="1" parent="1">
          <mxGeometry x="385" y="585" width="40" height="20" as="geometry" />
        </mxCell>
        <mxCell id="ojVlhn7t0QZ64-Dwg_ZY-40" value="ES集群" style="rounded=0;whiteSpace=wrap;html=1;strokeColor=#000000;fillColor=none;" vertex="1" parent="1">
          <mxGeometry x="101.75" y="650" width="627" height="60" as="geometry" />
        </mxCell>
        <mxCell id="ojVlhn7t0QZ64-Dwg_ZY-41" value="每2W行或2分钟" style="text;html=1;strokeColor=none;fillColor=none;align=center;verticalAlign=middle;whiteSpace=wrap;rounded=0;" vertex="1" parent="1">
          <mxGeometry x="299" y="610" width="105" height="20" as="geometry" />
        </mxCell>
        <mxCell id="ojVlhn7t0QZ64-Dwg_ZY-43" value="&lt;font color=&quot;#3399ff&quot;&gt;生产环境自动投递，staging环境需要另行简历投递关系&lt;/font&gt;" style="text;html=1;strokeColor=none;fillColor=none;align=center;verticalAlign=middle;whiteSpace=wrap;rounded=0;" vertex="1" parent="1">
          <mxGeometry x="420" y="592.5" width="160" height="5" as="geometry" />
        </mxCell>
        <mxCell id="ojVlhn7t0QZ64-Dwg_ZY-44" value="&lt;font style=&quot;font-size: 17px&quot;&gt;&lt;b&gt;多机房多线路收集数据&lt;/b&gt;&lt;/font&gt;" style="text;html=1;strokeColor=none;fillColor=none;align=center;verticalAlign=middle;whiteSpace=wrap;rounded=0;" vertex="1" parent="1">
          <mxGeometry x="39" y="800" width="230" as="geometry" />
        </mxCell>
        <mxCell id="ojVlhn7t0QZ64-Dwg_ZY-45" value="" style="endArrow=none;html=1;strokeWidth=4;" edge="1" parent="1">
          <mxGeometry width="50" height="50" relative="1" as="geometry">
            <mxPoint y="750" as="sourcePoint" />
            <mxPoint x="830" y="750" as="targetPoint" />
          </mxGeometry>
        </mxCell>
        <mxCell id="ojVlhn7t0QZ64-Dwg_ZY-59" value="投递" style="text;html=1;strokeColor=none;fillColor=none;align=center;verticalAlign=middle;whiteSpace=wrap;rounded=0;" vertex="1" parent="1">
          <mxGeometry x="420" y="840" width="40" height="20" as="geometry" />
        </mxCell>
        <mxCell id="ojVlhn7t0QZ64-Dwg_ZY-67" value="" style="group" vertex="1" connectable="0" parent="1">
          <mxGeometry x="59" y="840" width="546" height="60" as="geometry" />
        </mxCell>
        <mxCell id="ojVlhn7t0QZ64-Dwg_ZY-57" style="edgeStyle=orthogonalEdgeStyle;rounded=0;orthogonalLoop=1;jettySize=auto;html=1;strokeWidth=4;" edge="1" parent="ojVlhn7t0QZ64-Dwg_ZY-67" source="ojVlhn7t0QZ64-Dwg_ZY-56">
          <mxGeometry relative="1" as="geometry">
            <mxPoint x="431" y="30" as="targetPoint" />
          </mxGeometry>
        </mxCell>
        <mxCell id="ojVlhn7t0QZ64-Dwg_ZY-58" value="ES" style="rounded=0;whiteSpace=wrap;html=1;strokeColor=#000000;fillColor=none;" vertex="1" parent="ojVlhn7t0QZ64-Dwg_ZY-67">
          <mxGeometry x="426" width="120" height="60" as="geometry" />
        </mxCell>
        <mxCell id="ojVlhn7t0QZ64-Dwg_ZY-61" value="&lt;font style=&quot;font-size: 14px&quot;&gt;&lt;b&gt;ZW&lt;/b&gt;&lt;/font&gt;" style="text;html=1;strokeColor=none;fillColor=none;align=center;verticalAlign=middle;whiteSpace=wrap;rounded=0;" vertex="1" parent="ojVlhn7t0QZ64-Dwg_ZY-67">
          <mxGeometry x="426" width="40" height="20" as="geometry" />
        </mxCell>
        <mxCell id="ojVlhn7t0QZ64-Dwg_ZY-66" value="X" style="group" vertex="1" connectable="0" parent="ojVlhn7t0QZ64-Dwg_ZY-67">
          <mxGeometry width="341" height="60" as="geometry" />
        </mxCell>
        <mxCell id="ojVlhn7t0QZ64-Dwg_ZY-50" value="" style="group" vertex="1" connectable="0" parent="ojVlhn7t0QZ64-Dwg_ZY-66">
          <mxGeometry width="131" height="60" as="geometry" />
        </mxCell>
        <mxCell id="ojVlhn7t0QZ64-Dwg_ZY-47" value="POD1" style="text;html=1;strokeColor=none;fillColor=none;align=center;verticalAlign=middle;whiteSpace=wrap;rounded=0;" vertex="1" parent="ojVlhn7t0QZ64-Dwg_ZY-50">
          <mxGeometry x="1" y="40" width="40" height="20" as="geometry" />
        </mxCell>
        <mxCell id="ojVlhn7t0QZ64-Dwg_ZY-48" value="POD2&lt;span style=&quot;color: rgba(0 , 0 , 0 , 0) ; font-family: monospace ; font-size: 0px&quot;&gt;%3CmxGraphModel%3E%3Croot%3E%3CmxCell%20id%3D%220%22%2F%3E%3CmxCell%20id%3D%221%22%20parent%3D%220%22%2F%3E%3CmxCell%20id%3D%222%22%20value%3D%22POD1%22%20style%3D%22text%3Bhtml%3D1%3BstrokeColor%3Dnone%3BfillColor%3Dnone%3Balign%3Dcenter%3BverticalAlign%3Dmiddle%3BwhiteSpace%3Dwrap%3Brounded%3D0%3B%22%20vertex%3D%221%22%20parent%3D%221%22%3E%3CmxGeometry%20x%3D%2260%22%20y%3D%22880%22%20width%3D%2240%22%20height%3D%2220%22%20as%3D%22geometry%22%2F%3E%3C%2FmxCell%3E%3C%2Froot%3E%3C%2FmxGraphModel%3E&lt;/span&gt;" style="text;html=1;strokeColor=none;fillColor=none;align=center;verticalAlign=middle;whiteSpace=wrap;rounded=0;" vertex="1" parent="ojVlhn7t0QZ64-Dwg_ZY-50">
          <mxGeometry x="50" y="40" width="40" height="20" as="geometry" />
        </mxCell>
        <mxCell id="ojVlhn7t0QZ64-Dwg_ZY-49" value="……" style="text;html=1;strokeColor=none;fillColor=none;align=center;verticalAlign=middle;whiteSpace=wrap;rounded=0;" vertex="1" parent="ojVlhn7t0QZ64-Dwg_ZY-50">
          <mxGeometry x="91" y="40" width="40" height="20" as="geometry" />
        </mxCell>
        <mxCell id="ojVlhn7t0QZ64-Dwg_ZY-54" value="" style="group" vertex="1" connectable="0" parent="ojVlhn7t0QZ64-Dwg_ZY-50">
          <mxGeometry width="131" height="60" as="geometry" />
        </mxCell>
        <mxCell id="ojVlhn7t0QZ64-Dwg_ZY-46" value="HOST" style="rounded=0;whiteSpace=wrap;html=1;strokeColor=#000000;fillColor=none;" vertex="1" parent="ojVlhn7t0QZ64-Dwg_ZY-54">
          <mxGeometry width="131" height="60" as="geometry" />
        </mxCell>
        <mxCell id="ojVlhn7t0QZ64-Dwg_ZY-51" value="&lt;font style=&quot;font-size: 14px&quot;&gt;&lt;b&gt;ZW&lt;/b&gt;&lt;/font&gt;" style="text;html=1;strokeColor=none;fillColor=none;align=center;verticalAlign=middle;whiteSpace=wrap;rounded=0;" vertex="1" parent="ojVlhn7t0QZ64-Dwg_ZY-54">
          <mxGeometry x="1" width="40" height="20" as="geometry" />
        </mxCell>
        <mxCell id="ojVlhn7t0QZ64-Dwg_ZY-55" style="edgeStyle=orthogonalEdgeStyle;rounded=0;orthogonalLoop=1;jettySize=auto;html=1;strokeWidth=4;" edge="1" parent="ojVlhn7t0QZ64-Dwg_ZY-66" source="ojVlhn7t0QZ64-Dwg_ZY-46">
          <mxGeometry relative="1" as="geometry">
            <mxPoint x="221" y="30" as="targetPoint" />
          </mxGeometry>
        </mxCell>
        <mxCell id="ojVlhn7t0QZ64-Dwg_ZY-56" value="Kafka" style="rounded=0;whiteSpace=wrap;html=1;strokeColor=#000000;fillColor=none;" vertex="1" parent="ojVlhn7t0QZ64-Dwg_ZY-66">
          <mxGeometry x="221" width="120" height="60" as="geometry" />
        </mxCell>
        <mxCell id="ojVlhn7t0QZ64-Dwg_ZY-60" value="&lt;font style=&quot;font-size: 14px&quot;&gt;&lt;b&gt;ZW&lt;/b&gt;&lt;/font&gt;" style="text;html=1;strokeColor=none;fillColor=none;align=center;verticalAlign=middle;whiteSpace=wrap;rounded=0;" vertex="1" parent="ojVlhn7t0QZ64-Dwg_ZY-66">
          <mxGeometry x="221" width="40" height="20" as="geometry" />
        </mxCell>
        <mxCell id="ojVlhn7t0QZ64-Dwg_ZY-68" value="" style="group" vertex="1" connectable="0" parent="1">
          <mxGeometry x="60" y="930" width="546" height="60" as="geometry" />
        </mxCell>
        <mxCell id="ojVlhn7t0QZ64-Dwg_ZY-69" style="edgeStyle=orthogonalEdgeStyle;rounded=0;orthogonalLoop=1;jettySize=auto;html=1;strokeWidth=4;" edge="1" parent="ojVlhn7t0QZ64-Dwg_ZY-68" source="ojVlhn7t0QZ64-Dwg_ZY-81">
          <mxGeometry relative="1" as="geometry">
            <mxPoint x="431" y="30" as="targetPoint" />
          </mxGeometry>
        </mxCell>
        <mxCell id="ojVlhn7t0QZ64-Dwg_ZY-70" value="ES" style="rounded=0;whiteSpace=wrap;html=1;strokeColor=#000000;fillColor=none;" vertex="1" parent="ojVlhn7t0QZ64-Dwg_ZY-68">
          <mxGeometry x="426" width="120" height="60" as="geometry" />
        </mxCell>
        <mxCell id="ojVlhn7t0QZ64-Dwg_ZY-71" value="&lt;font style=&quot;font-size: 14px&quot;&gt;&lt;b&gt;YZ&lt;/b&gt;&lt;/font&gt;" style="text;html=1;strokeColor=none;fillColor=none;align=center;verticalAlign=middle;whiteSpace=wrap;rounded=0;" vertex="1" parent="ojVlhn7t0QZ64-Dwg_ZY-68">
          <mxGeometry x="426" width="40" height="20" as="geometry" />
        </mxCell>
        <mxCell id="ojVlhn7t0QZ64-Dwg_ZY-72" value="" style="group" vertex="1" connectable="0" parent="ojVlhn7t0QZ64-Dwg_ZY-68">
          <mxGeometry width="341" height="60" as="geometry" />
        </mxCell>
        <mxCell id="ojVlhn7t0QZ64-Dwg_ZY-73" value="" style="group" vertex="1" connectable="0" parent="ojVlhn7t0QZ64-Dwg_ZY-72">
          <mxGeometry width="131" height="60" as="geometry" />
        </mxCell>
        <mxCell id="ojVlhn7t0QZ64-Dwg_ZY-74" value="POD1" style="text;html=1;strokeColor=none;fillColor=none;align=center;verticalAlign=middle;whiteSpace=wrap;rounded=0;" vertex="1" parent="ojVlhn7t0QZ64-Dwg_ZY-73">
          <mxGeometry x="1" y="40" width="40" height="20" as="geometry" />
        </mxCell>
        <mxCell id="ojVlhn7t0QZ64-Dwg_ZY-75" value="POD2&lt;span style=&quot;color: rgba(0 , 0 , 0 , 0) ; font-family: monospace ; font-size: 0px&quot;&gt;%3CmxGraphModel%3E%3Croot%3E%3CmxCell%20id%3D%220%22%2F%3E%3CmxCell%20id%3D%221%22%20parent%3D%220%22%2F%3E%3CmxCell%20id%3D%222%22%20value%3D%22POD1%22%20style%3D%22text%3Bhtml%3D1%3BstrokeColor%3Dnone%3BfillColor%3Dnone%3Balign%3Dcenter%3BverticalAlign%3Dmiddle%3BwhiteSpace%3Dwrap%3Brounded%3D0%3B%22%20vertex%3D%221%22%20parent%3D%221%22%3E%3CmxGeometry%20x%3D%2260%22%20y%3D%22880%22%20width%3D%2240%22%20height%3D%2220%22%20as%3D%22geometry%22%2F%3E%3C%2FmxCell%3E%3C%2Froot%3E%3C%2FmxGraphModel%3E&lt;/span&gt;" style="text;html=1;strokeColor=none;fillColor=none;align=center;verticalAlign=middle;whiteSpace=wrap;rounded=0;" vertex="1" parent="ojVlhn7t0QZ64-Dwg_ZY-73">
          <mxGeometry x="50" y="40" width="40" height="20" as="geometry" />
        </mxCell>
        <mxCell id="ojVlhn7t0QZ64-Dwg_ZY-76" value="……" style="text;html=1;strokeColor=none;fillColor=none;align=center;verticalAlign=middle;whiteSpace=wrap;rounded=0;" vertex="1" parent="ojVlhn7t0QZ64-Dwg_ZY-73">
          <mxGeometry x="91" y="40" width="40" height="20" as="geometry" />
        </mxCell>
        <mxCell id="ojVlhn7t0QZ64-Dwg_ZY-77" value="" style="group" vertex="1" connectable="0" parent="ojVlhn7t0QZ64-Dwg_ZY-73">
          <mxGeometry width="131" height="60" as="geometry" />
        </mxCell>
        <mxCell id="ojVlhn7t0QZ64-Dwg_ZY-78" value="HOST" style="rounded=0;whiteSpace=wrap;html=1;strokeColor=#000000;fillColor=none;" vertex="1" parent="ojVlhn7t0QZ64-Dwg_ZY-77">
          <mxGeometry width="131" height="60" as="geometry" />
        </mxCell>
        <mxCell id="ojVlhn7t0QZ64-Dwg_ZY-79" value="&lt;font style=&quot;font-size: 14px&quot;&gt;&lt;b&gt;YZ&lt;/b&gt;&lt;/font&gt;" style="text;html=1;strokeColor=none;fillColor=none;align=center;verticalAlign=middle;whiteSpace=wrap;rounded=0;" vertex="1" parent="ojVlhn7t0QZ64-Dwg_ZY-77">
          <mxGeometry x="1" width="40" height="20" as="geometry" />
        </mxCell>
        <mxCell id="ojVlhn7t0QZ64-Dwg_ZY-80" style="edgeStyle=orthogonalEdgeStyle;rounded=0;orthogonalLoop=1;jettySize=auto;html=1;strokeWidth=4;" edge="1" parent="ojVlhn7t0QZ64-Dwg_ZY-72" source="ojVlhn7t0QZ64-Dwg_ZY-78">
          <mxGeometry relative="1" as="geometry">
            <mxPoint x="221" y="30" as="targetPoint" />
          </mxGeometry>
        </mxCell>
        <mxCell id="ojVlhn7t0QZ64-Dwg_ZY-81" value="Kafka" style="rounded=0;whiteSpace=wrap;html=1;strokeColor=#000000;fillColor=none;" vertex="1" parent="ojVlhn7t0QZ64-Dwg_ZY-72">
          <mxGeometry x="221" width="120" height="60" as="geometry" />
        </mxCell>
        <mxCell id="ojVlhn7t0QZ64-Dwg_ZY-82" value="&lt;span style=&quot;font-size: 14px&quot;&gt;&lt;b&gt;YZ&lt;/b&gt;&lt;/span&gt;" style="text;html=1;strokeColor=none;fillColor=none;align=center;verticalAlign=middle;whiteSpace=wrap;rounded=0;" vertex="1" parent="ojVlhn7t0QZ64-Dwg_ZY-72">
          <mxGeometry x="221" width="40" height="20" as="geometry" />
        </mxCell>
        <mxCell id="ojVlhn7t0QZ64-Dwg_ZY-84" value="&lt;font style=&quot;font-size: 17px&quot;&gt;&lt;b&gt;多机房单线路收集数据&lt;/b&gt;&lt;/font&gt;" style="text;html=1;strokeColor=none;fillColor=none;align=center;verticalAlign=middle;whiteSpace=wrap;rounded=0;" vertex="1" parent="1">
          <mxGeometry x="44" y="1050" width="230" as="geometry" />
        </mxCell>
        <mxCell id="ojVlhn7t0QZ64-Dwg_ZY-100" value="" style="group" vertex="1" connectable="0" parent="1">
          <mxGeometry x="65" y="1180" width="546" height="60" as="geometry" />
        </mxCell>
        <mxCell id="ojVlhn7t0QZ64-Dwg_ZY-101" style="edgeStyle=orthogonalEdgeStyle;rounded=0;orthogonalLoop=1;jettySize=auto;html=1;strokeWidth=4;" edge="1" parent="ojVlhn7t0QZ64-Dwg_ZY-100" source="ojVlhn7t0QZ64-Dwg_ZY-113">
          <mxGeometry relative="1" as="geometry">
            <mxPoint x="431" y="30" as="targetPoint" />
          </mxGeometry>
        </mxCell>
        <mxCell id="ojVlhn7t0QZ64-Dwg_ZY-102" value="ES" style="rounded=0;whiteSpace=wrap;html=1;strokeColor=#000000;fillColor=none;" vertex="1" parent="ojVlhn7t0QZ64-Dwg_ZY-100">
          <mxGeometry x="426" width="120" height="60" as="geometry" />
        </mxCell>
        <mxCell id="ojVlhn7t0QZ64-Dwg_ZY-103" value="&lt;font style=&quot;font-size: 14px&quot;&gt;&lt;b&gt;YZ&lt;/b&gt;&lt;/font&gt;" style="text;html=1;strokeColor=none;fillColor=none;align=center;verticalAlign=middle;whiteSpace=wrap;rounded=0;" vertex="1" parent="ojVlhn7t0QZ64-Dwg_ZY-100">
          <mxGeometry x="426" width="40" height="20" as="geometry" />
        </mxCell>
        <mxCell id="ojVlhn7t0QZ64-Dwg_ZY-104" value="" style="group" vertex="1" connectable="0" parent="ojVlhn7t0QZ64-Dwg_ZY-100">
          <mxGeometry width="341" height="60" as="geometry" />
        </mxCell>
        <mxCell id="ojVlhn7t0QZ64-Dwg_ZY-105" value="" style="group" vertex="1" connectable="0" parent="ojVlhn7t0QZ64-Dwg_ZY-104">
          <mxGeometry width="131" height="60" as="geometry" />
        </mxCell>
        <mxCell id="ojVlhn7t0QZ64-Dwg_ZY-106" value="POD1" style="text;html=1;strokeColor=none;fillColor=none;align=center;verticalAlign=middle;whiteSpace=wrap;rounded=0;" vertex="1" parent="ojVlhn7t0QZ64-Dwg_ZY-105">
          <mxGeometry x="1" y="40" width="40" height="20" as="geometry" />
        </mxCell>
        <mxCell id="ojVlhn7t0QZ64-Dwg_ZY-107" value="POD2&lt;span style=&quot;color: rgba(0 , 0 , 0 , 0) ; font-family: monospace ; font-size: 0px&quot;&gt;%3CmxGraphModel%3E%3Croot%3E%3CmxCell%20id%3D%220%22%2F%3E%3CmxCell%20id%3D%221%22%20parent%3D%220%22%2F%3E%3CmxCell%20id%3D%222%22%20value%3D%22POD1%22%20style%3D%22text%3Bhtml%3D1%3BstrokeColor%3Dnone%3BfillColor%3Dnone%3Balign%3Dcenter%3BverticalAlign%3Dmiddle%3BwhiteSpace%3Dwrap%3Brounded%3D0%3B%22%20vertex%3D%221%22%20parent%3D%221%22%3E%3CmxGeometry%20x%3D%2260%22%20y%3D%22880%22%20width%3D%2240%22%20height%3D%2220%22%20as%3D%22geometry%22%2F%3E%3C%2FmxCell%3E%3C%2Froot%3E%3C%2FmxGraphModel%3E&lt;/span&gt;" style="text;html=1;strokeColor=none;fillColor=none;align=center;verticalAlign=middle;whiteSpace=wrap;rounded=0;" vertex="1" parent="ojVlhn7t0QZ64-Dwg_ZY-105">
          <mxGeometry x="50" y="40" width="40" height="20" as="geometry" />
        </mxCell>
        <mxCell id="ojVlhn7t0QZ64-Dwg_ZY-108" value="……" style="text;html=1;strokeColor=none;fillColor=none;align=center;verticalAlign=middle;whiteSpace=wrap;rounded=0;" vertex="1" parent="ojVlhn7t0QZ64-Dwg_ZY-105">
          <mxGeometry x="91" y="40" width="40" height="20" as="geometry" />
        </mxCell>
        <mxCell id="ojVlhn7t0QZ64-Dwg_ZY-109" value="" style="group" vertex="1" connectable="0" parent="ojVlhn7t0QZ64-Dwg_ZY-105">
          <mxGeometry width="131" height="60" as="geometry" />
        </mxCell>
        <mxCell id="ojVlhn7t0QZ64-Dwg_ZY-110" value="HOST" style="rounded=0;whiteSpace=wrap;html=1;strokeColor=#000000;fillColor=none;" vertex="1" parent="ojVlhn7t0QZ64-Dwg_ZY-109">
          <mxGeometry width="131" height="60" as="geometry" />
        </mxCell>
        <mxCell id="ojVlhn7t0QZ64-Dwg_ZY-111" value="&lt;font style=&quot;font-size: 14px&quot;&gt;&lt;b&gt;YZ&lt;/b&gt;&lt;/font&gt;" style="text;html=1;strokeColor=none;fillColor=none;align=center;verticalAlign=middle;whiteSpace=wrap;rounded=0;" vertex="1" parent="ojVlhn7t0QZ64-Dwg_ZY-109">
          <mxGeometry x="1" width="40" height="20" as="geometry" />
        </mxCell>
        <mxCell id="ojVlhn7t0QZ64-Dwg_ZY-112" style="edgeStyle=orthogonalEdgeStyle;rounded=0;orthogonalLoop=1;jettySize=auto;html=1;strokeWidth=4;" edge="1" parent="ojVlhn7t0QZ64-Dwg_ZY-104" source="ojVlhn7t0QZ64-Dwg_ZY-110">
          <mxGeometry relative="1" as="geometry">
            <mxPoint x="221" y="30" as="targetPoint" />
          </mxGeometry>
        </mxCell>
        <mxCell id="ojVlhn7t0QZ64-Dwg_ZY-113" value="Kafka" style="rounded=0;whiteSpace=wrap;html=1;strokeColor=#000000;fillColor=none;" vertex="1" parent="ojVlhn7t0QZ64-Dwg_ZY-104">
          <mxGeometry x="221" width="120" height="60" as="geometry" />
        </mxCell>
        <mxCell id="ojVlhn7t0QZ64-Dwg_ZY-114" value="&lt;span style=&quot;font-size: 14px&quot;&gt;&lt;b&gt;YZ&lt;/b&gt;&lt;/span&gt;" style="text;html=1;strokeColor=none;fillColor=none;align=center;verticalAlign=middle;whiteSpace=wrap;rounded=0;" vertex="1" parent="ojVlhn7t0QZ64-Dwg_ZY-104">
          <mxGeometry x="221" width="40" height="20" as="geometry" />
        </mxCell>
        <mxCell id="ojVlhn7t0QZ64-Dwg_ZY-90" value="" style="group" vertex="1" connectable="0" parent="1">
          <mxGeometry x="64" y="1090" width="131" height="60" as="geometry" />
        </mxCell>
        <mxCell id="ojVlhn7t0QZ64-Dwg_ZY-91" value="POD1" style="text;html=1;strokeColor=none;fillColor=none;align=center;verticalAlign=middle;whiteSpace=wrap;rounded=0;" vertex="1" parent="ojVlhn7t0QZ64-Dwg_ZY-90">
          <mxGeometry x="1" y="40" width="40" height="20" as="geometry" />
        </mxCell>
        <mxCell id="ojVlhn7t0QZ64-Dwg_ZY-92" value="POD2&lt;span style=&quot;color: rgba(0 , 0 , 0 , 0) ; font-family: monospace ; font-size: 0px&quot;&gt;%3CmxGraphModel%3E%3Croot%3E%3CmxCell%20id%3D%220%22%2F%3E%3CmxCell%20id%3D%221%22%20parent%3D%220%22%2F%3E%3CmxCell%20id%3D%222%22%20value%3D%22POD1%22%20style%3D%22text%3Bhtml%3D1%3BstrokeColor%3Dnone%3BfillColor%3Dnone%3Balign%3Dcenter%3BverticalAlign%3Dmiddle%3BwhiteSpace%3Dwrap%3Brounded%3D0%3B%22%20vertex%3D%221%22%20parent%3D%221%22%3E%3CmxGeometry%20x%3D%2260%22%20y%3D%22880%22%20width%3D%2240%22%20height%3D%2220%22%20as%3D%22geometry%22%2F%3E%3C%2FmxCell%3E%3C%2Froot%3E%3C%2FmxGraphModel%3E&lt;/span&gt;" style="text;html=1;strokeColor=none;fillColor=none;align=center;verticalAlign=middle;whiteSpace=wrap;rounded=0;" vertex="1" parent="ojVlhn7t0QZ64-Dwg_ZY-90">
          <mxGeometry x="50" y="40" width="40" height="20" as="geometry" />
        </mxCell>
        <mxCell id="ojVlhn7t0QZ64-Dwg_ZY-93" value="……" style="text;html=1;strokeColor=none;fillColor=none;align=center;verticalAlign=middle;whiteSpace=wrap;rounded=0;" vertex="1" parent="ojVlhn7t0QZ64-Dwg_ZY-90">
          <mxGeometry x="91" y="40" width="40" height="20" as="geometry" />
        </mxCell>
        <mxCell id="ojVlhn7t0QZ64-Dwg_ZY-94" value="" style="group" vertex="1" connectable="0" parent="ojVlhn7t0QZ64-Dwg_ZY-90">
          <mxGeometry width="131" height="60" as="geometry" />
        </mxCell>
        <mxCell id="ojVlhn7t0QZ64-Dwg_ZY-95" value="HOST" style="rounded=0;whiteSpace=wrap;html=1;strokeColor=#000000;fillColor=none;" vertex="1" parent="ojVlhn7t0QZ64-Dwg_ZY-94">
          <mxGeometry width="131" height="60" as="geometry" />
        </mxCell>
        <mxCell id="ojVlhn7t0QZ64-Dwg_ZY-96" value="&lt;font style=&quot;font-size: 14px&quot;&gt;&lt;b&gt;ZW&lt;/b&gt;&lt;/font&gt;" style="text;html=1;strokeColor=none;fillColor=none;align=center;verticalAlign=middle;whiteSpace=wrap;rounded=0;" vertex="1" parent="ojVlhn7t0QZ64-Dwg_ZY-94">
          <mxGeometry x="1" width="40" height="20" as="geometry" />
        </mxCell>
        <mxCell id="ojVlhn7t0QZ64-Dwg_ZY-97" style="edgeStyle=orthogonalEdgeStyle;rounded=0;orthogonalLoop=1;jettySize=auto;html=1;strokeWidth=4;entryX=0;entryY=0.5;entryDx=0;entryDy=0;" edge="1" parent="1" source="ojVlhn7t0QZ64-Dwg_ZY-95" target="ojVlhn7t0QZ64-Dwg_ZY-113">
          <mxGeometry x="64" y="1090" as="geometry">
            <mxPoint x="285" y="1120" as="targetPoint" />
          </mxGeometry>
        </mxCell>
      </root>
    </mxGraphModel>
  </diagram>
</mxfile>
